<svg xmlns="http://www.w3.org/2000/svg" width="75.47" height="75.469" viewBox="0 0 75.47 75.469">
  <g id="Group_1886" data-name="Group 1886" transform="translate(75.47 37.735) rotate(135)">
    <circle id="Circle_Grid" data-name="Circle Grid" cx="26.683" cy="26.683" r="26.683" fill="#ff0018"/>
    <path id="Path_309" data-name="Path 309" d="M37.523,42.6c3.665,3.665,7.256,5.151,8.55,3.858l1.776-1.776a3.134,3.134,0,0,1,4.431,0l3.988,3.988a3.134,3.134,0,0,1,0,4.431l-3.107,3.107c-2.936,2.936-11.619-.983-19.942-9.305a43.063,43.063,0,0,1-8.65-11.766c-1.763-3.686-2.12-6.709-.653-8.176l3.107-3.107a3.134,3.134,0,0,1,4.431,0l3.988,3.987a3.134,3.134,0,0,1,0,4.431l-1.778,1.781c-1.294,1.292.193,4.884,3.857,8.547Z" transform="translate(-13.412 -13.373)" fill="#eeefee"/>
  </g>
</svg>
