<svg xmlns="http://www.w3.org/2000/svg" width="24.009" height="24" viewBox="0 0 24.009 24">
  <path id="Path_156" data-name="Path 156" d="M.6,24a.61.61,0,0,1-.58-.79l1.64-5.1A12.1,12.1,0,0,1,0,12,12.007,12.007,0,0,1,20.49,3.51a12.023,12.023,0,0,1,0,16.98A11.894,11.894,0,0,1,12,24a12.014,12.014,0,0,1-6.11-1.67L.79,23.97A.566.566,0,0,1,.61,24Zm5.36-2.93a.62.62,0,0,1,.32.09,10.863,10.863,0,1,0-3.43-3.45.609.609,0,0,1,.06.51L1.54,22.46l4.24-1.37a.582.582,0,0,1,.19-.03Z" transform="translate(0.009)" fill="#fff"/>
</svg>
