<svg xmlns="http://www.w3.org/2000/svg" width="56.569" height="56.569" viewBox="0 0 56.569 56.569">
  <g id="Group_1880" data-name="Group 1880" transform="translate(56.569 28.284) rotate(135)">
    <path id="Path_308" data-name="Path 308" d="M20,0A20,20,0,1,1,0,20,20,20,0,0,1,20,0ZM31.742,29.253a1.533,1.533,0,0,0,0-2.162l-3.915-3.914a1.534,1.534,0,0,0-2.163,0L24.6,24.241a2.328,2.328,0,0,1-2.754.412,15.639,15.639,0,0,1-6.5-6.5,2.33,2.33,0,0,1,.412-2.754l1.066-1.064a1.534,1.534,0,0,0,0-2.163L12.91,8.259a1.534,1.534,0,0,0-2.163,0c-.162.161-.366.356-.585.563a13.3,13.3,0,0,0-1.506,1.566c-1.454,2.128-.757,4.975.081,6.989a26.574,26.574,0,0,0,5.745,8.144,26.578,26.578,0,0,0,8.144,5.743c2.013.839,4.859,1.535,6.987.081a13.192,13.192,0,0,0,1.566-1.506c.207-.219.4-.425.564-.586Z" fill="#f20101" fill-rule="evenodd"/>
  </g>
</svg>
