<svg xmlns="http://www.w3.org/2000/svg" width="76.886" height="76.886" viewBox="0 0 76.886 76.886">
  <g id="Group_1857" data-name="Group 1857" transform="translate(-154 -438)">
    <circle id="Ellipse_402" data-name="Ellipse 402" cx="29" cy="29" r="29" transform="translate(163.443 447.443)" fill="#fff"/>
    <g id="Path_299" data-name="Path 299" transform="translate(154 438)" fill="none" opacity="0.87">
      <path d="M38.443,0A38.443,38.443,0,1,1,0,38.443,38.443,38.443,0,0,1,38.443,0Z" stroke="none"/>
      <path d="M 38.44287109375 4.000007629394531 C 33.79135131835938 4.000007629394531 29.28108596801758 4.910110473632812 25.03737640380859 6.705055236816406 C 20.93641662597656 8.439605712890625 17.2525520324707 10.92361450195312 14.08808517456055 14.08808517456055 C 10.92361450195312 17.2525520324707 8.439605712890625 20.93641662597656 6.705055236816406 25.03737640380859 C 4.910110473632812 29.28108596801758 4.000007629394531 33.79135131835938 4.000007629394531 38.44287109375 C 4.000007629394531 43.09439086914062 4.910110473632812 47.60466003417969 6.705055236816406 51.84836578369141 C 8.439605712890625 55.94932556152344 10.92361450195312 59.6331901550293 14.08808517456055 62.79765701293945 C 17.2525520324707 65.96212768554688 20.93641662597656 68.44613647460938 25.03737640380859 70.18068695068359 C 29.28108596801758 71.97563171386719 33.79135131835938 72.88573455810547 38.44287109375 72.88573455810547 C 43.09439086914062 72.88573455810547 47.60466003417969 71.97563171386719 51.84836578369141 70.18068695068359 C 55.94932556152344 68.44613647460938 59.6331901550293 65.96212768554688 62.79765701293945 62.79765701293945 C 65.96212768554688 59.6331901550293 68.44613647460938 55.94932556152344 70.18068695068359 51.84836578369141 C 71.97563171386719 47.60466003417969 72.88573455810547 43.09439086914062 72.88573455810547 38.44287109375 C 72.88573455810547 33.79135131835938 71.97563171386719 29.28108596801758 70.18068695068359 25.03737640380859 C 68.44613647460938 20.93641662597656 65.96212768554688 17.2525520324707 62.79765701293945 14.08808517456055 C 59.6331901550293 10.92361450195312 55.94932556152344 8.439605712890625 51.84836578369141 6.705055236816406 C 47.60466003417969 4.910110473632812 43.09439086914062 4.000007629394531 38.44287109375 4.000007629394531 M 38.44287109375 7.62939453125e-06 C 59.67428588867188 7.62939453125e-06 76.88573455810547 17.21145629882812 76.88573455810547 38.44287109375 C 76.88573455810547 59.67428588867188 59.67428588867188 76.88573455810547 38.44287109375 76.88573455810547 C 17.21145629882812 76.88573455810547 7.62939453125e-06 59.67428588867188 7.62939453125e-06 38.44287109375 C 7.62939453125e-06 17.21145629882812 17.21145629882812 7.62939453125e-06 38.44287109375 7.62939453125e-06 Z" stroke="none" fill="#fff"/>
    </g>
  </g>
</svg>
