<svg xmlns="http://www.w3.org/2000/svg" width="40" height="40" viewBox="0 0 40 40">
  <path id="google" d="M-443,40a19.869,19.869,0,0,1-14.142-5.858A19.869,19.869,0,0,1-463,20a19.87,19.87,0,0,1,5.858-14.142A19.868,19.868,0,0,1-443,0a19.87,19.87,0,0,1,14.142,5.858A19.87,19.87,0,0,1-423,20a19.868,19.868,0,0,1-5.858,14.142A19.87,19.87,0,0,1-443,40Zm.262-29.994a10.267,10.267,0,0,0-10.255,10.255,10.267,10.267,0,0,0,10.255,10.255,10.267,10.267,0,0,0,10.255-10.255V18.308h-10.255v3.907h6.041a6.335,6.335,0,0,1-6.041,4.4,6.356,6.356,0,0,1-6.349-6.349,6.356,6.356,0,0,1,6.349-6.349,6.285,6.285,0,0,1,3.868,1.314l2.384-3.1A10.164,10.164,0,0,0-442.738,10.006Z" transform="translate(463)" fill="#fff"/>
</svg>
