<svg xmlns="http://www.w3.org/2000/svg" width="40" height="40" viewBox="0 0 40 40">
  <path id="phone" d="M-443,40a19.869,19.869,0,0,1-14.142-5.858A19.869,19.869,0,0,1-463,20a19.87,19.87,0,0,1,5.858-14.142A19.868,19.868,0,0,1-443,0a19.87,19.87,0,0,1,14.142,5.858A19.87,19.87,0,0,1-423,20a19.868,19.868,0,0,1-5.858,14.142A19.87,19.87,0,0,1-443,40Zm-4.513-30.658a1.564,1.564,0,0,0-1.561,1.563V29.233a1.563,1.563,0,0,0,1.561,1.561h9.026a1.563,1.563,0,0,0,1.561-1.561V10.9a1.564,1.564,0,0,0-1.561-1.563ZM-443,29.252a1,1,0,0,1-1-1,1,1,0,0,1,1-1,1,1,0,0,1,1,1A1,1,0,0,1-443,29.252Zm4.9-3.415H-447.9V11.979h9.808V25.835Zm-2.676-14.792h-4.455c-.112,0-.2-.169-.2-.377s.091-.376.2-.376h4.455c.113,0,.2.169.2.376S-440.658,11.044-440.771,11.044Z" transform="translate(463)" fill="#fff"/>
</svg>
