<svg id="chat" xmlns="http://www.w3.org/2000/svg" width="23.177" height="24" viewBox="0 0 23.177 24">
  <path id="Path_156" data-name="Path 156" d="M.579,24a.567.567,0,0,1-.415-.18.618.618,0,0,1-.145-.61L1.6,18.11A12.438,12.438,0,0,1,0,12,12.174,12.174,0,0,1,3.388,3.51a11.324,11.324,0,0,1,16.392,0A12.114,12.114,0,0,1,23.168,12a12.174,12.174,0,0,1-3.388,8.49A11.295,11.295,0,0,1,5.686,22.33L.762,23.97A.529.529,0,0,1,.589,24Zm5.174-2.93a.583.583,0,0,1,.309.09,10.132,10.132,0,0,0,5.512,1.64A10.62,10.62,0,0,0,21.99,12.01,10.62,10.62,0,0,0,11.584,1.21,10.62,10.62,0,0,0,1.168,12a11.03,11.03,0,0,0,1.583,5.71.628.628,0,0,1,.058.51L1.486,22.46l4.093-1.37a.544.544,0,0,1,.183-.03Z" transform="translate(0.009)" fill="#fff"/>
  <path id="Path_157" data-name="Path 157" d="M13.126,12a1.169,1.169,0,1,1-1.168-1.21A1.187,1.187,0,0,1,13.126,12" transform="translate(-0.365)" fill="#fff"/>
  <path id="Path_158" data-name="Path 158" d="M17.956,12a1.169,1.169,0,1,1-1.168-1.21A1.187,1.187,0,0,1,17.956,12" transform="translate(-0.533)" fill="#fff"/>
  <path id="Path_159" data-name="Path 159" d="M8.3,12a1.169,1.169,0,1,1-1.168-1.21A1.187,1.187,0,0,1,8.3,12" transform="translate(-0.198)" fill="#fff"/>
</svg>
