<?xml version="1.0" encoding="UTF-8"?><svg id="Layer_1" xmlns="http://www.w3.org/2000/svg" viewBox="0 0 24 24"><path d="m12,24C5.38,24,0,18.62,0,12S5.38,0,12,0s12,5.38,12,12-5.38,12-12,12Zm0-22.69C6.1,1.31,1.31,6.1,1.31,12s4.8,10.69,10.69,10.69,10.69-4.8,10.69-10.69S17.9,1.31,12,1.31Z" style="fill:#ff5043;"/><path d="m10.86,17.9c0-.63.44-1.13,1.17-1.13.67,0,1.11.5,1.11,1.13s-.46,1.15-1.15,1.15-1.13-.5-1.13-1.15Zm2.05-12.04v8.28c0,.51-.41.92-.92.92h0c-.51,0-.92-.41-.92-.92V5.87c0-.51.41-.92.92-.92h0c.51,0,.92.41.92.92Z" style="fill:#ff5043;"/></svg>