<svg id="Group_906" data-name="Group 906" xmlns="http://www.w3.org/2000/svg" xmlns:xlink="http://www.w3.org/1999/xlink" width="31.856" height="20.226" viewBox="0 0 31.856 20.226">
  <defs>
    <clipPath id="clip-path">
      <rect id="Rectangle_309" data-name="Rectangle 309" width="31.856" height="20.226" fill="none"/>
    </clipPath>
  </defs>
  <g id="Group_905" data-name="Group 905" clip-path="url(#clip-path)">
    <path id="Path_150" data-name="Path 150" d="M30.144,2.25a2.979,2.979,0,0,0-3.423,0L23.989,4.087A5,5,0,0,0,19.263,0H4.886A5.16,5.16,0,0,0,0,5.385v9.456a5.159,5.159,0,0,0,4.886,5.385H19.263a5,5,0,0,0,4.727-4.088l2.731,1.837a2.98,2.98,0,0,0,3.423,0,4.1,4.1,0,0,0,1.712-3.455V5.705A4.106,4.106,0,0,0,30.144,2.25M22.217,14.841A3.12,3.12,0,0,1,19.263,18.1H4.886a3.12,3.12,0,0,1-2.955-3.256V5.385A3.12,3.12,0,0,1,4.886,2.129H19.263a3.12,3.12,0,0,1,2.955,3.256Zm8.143-.32a2.312,2.312,0,0,1-.964,1.946,1.677,1.677,0,0,1-1.928,0l-3.32-2.233V5.993l3.32-2.233a1.677,1.677,0,0,1,1.928,0,2.312,2.312,0,0,1,.964,1.946Z" transform="translate(0 0)" fill="#fff"/>
    <path id="Path_151" data-name="Path 151" d="M13.184,10.524a1.028,1.028,0,1,1-1.028-1.065,1.047,1.047,0,0,1,1.028,1.065" transform="translate(-5.991 -4.935)" fill="#fff"/>
  </g>
</svg>
