<svg xmlns="http://www.w3.org/2000/svg" width="24.201" height="29.685" viewBox="0 0 24.201 29.685">
  <g id="apple" transform="translate(-2.104)">
    <g id="Group_3" data-name="Group 3" transform="translate(2.104)">
      <g id="Group_2" data-name="Group 2">
        <path id="Path_1" data-name="Path 1" d="M17.113,0h.211a6.357,6.357,0,0,1-1.6,4.79,4.962,4.962,0,0,1-4.368,2.05A6.166,6.166,0,0,1,12.985,2.2,7.038,7.038,0,0,1,17.113,0Z" transform="translate(0.699)" fill="#fff"/>
        <path id="Path_2" data-name="Path 2" d="M26.305,20.123v.059a17.271,17.271,0,0,1-2.471,4.764c-.942,1.3-2.1,3.042-4.16,3.042-1.782,0-2.965-1.146-4.792-1.177-1.932-.031-2.994.958-4.76,1.207h-.6a5.379,5.379,0,0,1-3.106-2.14A18.752,18.752,0,0,1,2.1,15.09V13.762A8.7,8.7,0,0,1,5.9,6.621a6.415,6.415,0,0,1,4.307-1,10.834,10.834,0,0,1,2.11.6,5.827,5.827,0,0,0,2.109.632,5.063,5.063,0,0,0,1.479-.452,9.1,9.1,0,0,1,4.76-.845,6.6,6.6,0,0,1,4.853,2.894,6.228,6.228,0,0,0-3.164,6.179A6.379,6.379,0,0,0,26.305,20.123Z" transform="translate(-2.104 1.667)" fill="#fff"/>
      </g>
    </g>
  </g>
</svg>
