<svg id="comment" xmlns="http://www.w3.org/2000/svg" width="33" height="33" viewBox="0 0 33 33">
  <rect id="Rectangle_350" data-name="Rectangle 350" width="33" height="33" fill="#fff" opacity="0"/>
  <path id="Path_165" data-name="Path 165" d="M.06,16.411a16.406,16.406,0,1,1,30.388,8.561h0v6.184a1.81,1.81,0,0,1-1.842,1.814l-12.493-.179h.014A16.385,16.385,0,0,1,.06,16.411Zm23.984,2.6a2.444,2.444,0,1,0-1.924-1.924A2.442,2.442,0,0,0,24.044,19.008Zm-8.205,0a2.444,2.444,0,1,0-1.924-1.924A2.442,2.442,0,0,0,15.838,19.008Zm-8.205,0a2.444,2.444,0,1,0-1.924-1.924A2.442,2.442,0,0,0,7.633,19.008Z" transform="translate(0.03 0.016)" fill="#fff"/>
</svg>
