<svg xmlns="http://www.w3.org/2000/svg" xmlns:xlink="http://www.w3.org/1999/xlink" width="390" height="72" viewBox="0 0 390 72">
  <defs>
    <filter id="Rectangle_197" x="-15" y="-18" width="420" height="102" filterUnits="userSpaceOnUse">
      <feOffset dy="-3" input="SourceAlpha"/>
      <feGaussianBlur stdDeviation="5" result="blur"/>
      <feFlood flood-opacity="0.039"/>
      <feComposite operator="in" in2="blur"/>
      <feComposite in="SourceGraphic"/>
    </filter>
    <clipPath id="clip-path">
      <g transform="matrix(1, 0, 0, 1, 0, 0)" filter="url(#Rectangle_197)">
        <path id="Rectangle_197-2" data-name="Rectangle 197" d="M25,0H365a25,25,0,0,1,25,25V72a0,0,0,0,1,0,0H0a0,0,0,0,1,0,0V25A25,25,0,0,1,25,0Z" transform="translate(0 0.48)" fill="#ec8edf"/>
      </g>
    </clipPath>
    <linearGradient id="linear-gradient" x1="0.5" x2="0.5" y2="0.192" gradientUnits="objectBoundingBox">
      <stop offset="0" stop-color="#fb8aeb" stop-opacity="0.341"/>
      <stop offset="1" stop-color="#fff" stop-opacity="0"/>
    </linearGradient>
    <filter id="Rectangle_198" x="-15" y="-18" width="420" height="557" filterUnits="userSpaceOnUse">
      <feOffset dy="-3" input="SourceAlpha"/>
      <feGaussianBlur stdDeviation="5" result="blur-2"/>
      <feFlood flood-opacity="0.039"/>
      <feComposite operator="in" in2="blur-2"/>
      <feComposite in="SourceGraphic"/>
    </filter>
    <linearGradient id="linear-gradient-2" x1="0.5" x2="0.5" y2="1" gradientUnits="objectBoundingBox">
      <stop offset="0" stop-color="#fff"/>
      <stop offset="1" stop-color="#fff" stop-opacity="0"/>
    </linearGradient>
  </defs>
  <g id="Mask_Group_27" data-name="Mask Group 27" transform="translate(0 -0.485)" clip-path="url(#clip-path)">
    <g transform="matrix(1, 0, 0, 1, 0, 0.48)" filter="url(#Rectangle_198)">
      <path id="Rectangle_198-2" data-name="Rectangle 198" d="M25,0H365a25,25,0,0,1,25,25V527a0,0,0,0,1,0,0H0a0,0,0,0,1,0,0V25A25,25,0,0,1,25,0Z" fill="url(#linear-gradient)"/>
    </g>
    <path id="Icon_ionic-ios-star" data-name="Icon ionic-ios-star" d="M30.508,10l-10.4.271L17.19.736A1.048,1.048,0,0,0,16.135,0,1.191,1.191,0,0,0,15.04.792l-3.406,9.694-10.473.273h0A1.22,1.22,0,0,0,0,11.941a.85.85,0,0,0,.016.194,1.047,1.047,0,0,0,.453.8l8.393,5.917L5.333,28.659a1.127,1.127,0,0,0,.356,1.287,1.027,1.027,0,0,0,.629.264,1.439,1.439,0,0,0,.714-.278l8.5-6.277L23.72,29.5a1.249,1.249,0,0,0,.7.241,1.064,1.064,0,0,0,.637-.3,1.2,1.2,0,0,0,.422-1.307L22.447,18.5l8.637-6.417.21-.185a1.291,1.291,0,0,0,.387-.781A1.134,1.134,0,0,0,30.508,10Z" transform="matrix(0.819, -0.574, 0.574, 0.819, 27.669, 22.28)" opacity="0.74" fill="url(#linear-gradient-2)"/>
    <path id="Icon_ionic-ios-star-2" data-name="Icon ionic-ios-star" d="M30.648,10.712l-10.471-.286L16.736.789A1.2,1.2,0,0,0,15.633,0,1.051,1.051,0,0,0,14.572.73L11.65,10.193,1.108,9.9h0A1.073,1.073,0,0,0,0,11.019a.863.863,0,0,0,.027.194,1.177,1.177,0,0,0,.5.822L9.3,18.369l-3.04,9.567a1.2,1.2,0,0,0,.427,1.3,1.164,1.164,0,0,0,.648.3,1.323,1.323,0,0,0,.7-.238L16.272,23.5l8.563,6.25a1.4,1.4,0,0,0,.719.277.963.963,0,0,0,.626-.262,1.1,1.1,0,0,0,.356-1.278l-3.565-9.748,8.367-5.923.2-.173a1.133,1.133,0,0,0,.349-.756A1.292,1.292,0,0,0,30.648,10.712Z" transform="translate(334.089 24.054) rotate(42)" opacity="0.83" fill="url(#linear-gradient-2)"/>
    <path id="Icon_ionic-ios-star-3" data-name="Icon ionic-ios-star" d="M18.9,6.7,12.45,6.679,10.466.494A.7.7,0,0,0,9.8,0a.688.688,0,0,0-.665.488L7.195,6.658.7,6.633h0a.718.718,0,0,0-.7.738A.575.575,0,0,0,.014,7.5a.728.728,0,0,0,.3.524l5.318,3.967L3.615,18.227a.772.772,0,0,0,.244.835.667.667,0,0,0,.4.182.826.826,0,0,0,.438-.165L9.854,15.2l5.19,3.915a.8.8,0,0,0,.439.168.609.609,0,0,0,.39-.179.754.754,0,0,0,.238-.833L14.053,12.02,19.3,8.058l.127-.115a.788.788,0,0,0,.226-.495A.769.769,0,0,0,18.9,6.7Z" transform="translate(78.818 43.727) rotate(4)" opacity="0.66" fill="url(#linear-gradient-2)"/>
    <path id="Icon_ionic-ios-star-4" data-name="Icon ionic-ios-star" d="M11.5,3.9,7.579,3.97,6.454.287A.4.4,0,0,0,6.053,0a.442.442,0,0,0-.411.3L4.384,4.03.435,4.1h0A.457.457,0,0,0,0,4.556a.336.336,0,0,0,.007.075.413.413,0,0,0,.173.311L3.361,7.248l-1.3,3.77a.445.445,0,0,0,.138.5.389.389,0,0,0,.238.1.528.528,0,0,0,.268-.1l3.189-2.4,3.1,2.277a.471.471,0,0,0,.265.095.391.391,0,0,0,.239-.113.463.463,0,0,0,.156-.5L8.484,7.152,11.724,4.7l.079-.071a.493.493,0,0,0,.144-.3A.44.44,0,0,0,11.5,3.9Z" transform="translate(282.013 20.26) rotate(-21)" opacity="0.49" fill="url(#linear-gradient-2)"/>
    <path id="Icon_ionic-ios-star-5" data-name="Icon ionic-ios-star" d="M11.5,3.9,7.579,3.97,6.454.287A.4.4,0,0,0,6.053,0a.442.442,0,0,0-.411.3L4.384,4.03.435,4.1h0A.457.457,0,0,0,0,4.556a.336.336,0,0,0,.007.075.413.413,0,0,0,.173.311L3.361,7.248l-1.3,3.77a.445.445,0,0,0,.138.5.389.389,0,0,0,.238.1.528.528,0,0,0,.268-.1l3.189-2.4,3.1,2.277a.471.471,0,0,0,.265.095.391.391,0,0,0,.239-.113.463.463,0,0,0,.156-.5L8.484,7.152,11.724,4.7l.079-.071a.493.493,0,0,0,.144-.3A.44.44,0,0,0,11.5,3.9Z" transform="translate(-0.115 33.26) rotate(-21)" opacity="0.49" fill="url(#linear-gradient-2)"/>
    <path id="Icon_ionic-ios-star-6" data-name="Icon ionic-ios-star" d="M7.076,2.523,4.66,2.5,3.905.186A.266.266,0,0,0,3.654,0a.254.254,0,0,0-.248.181l-.713,2.3L.26,2.457h0A.265.265,0,0,0,0,2.732a.215.215,0,0,0,.005.047.275.275,0,0,0,.112.2l2,1.493L1.376,6.793a.29.29,0,0,0,.093.312.253.253,0,0,0,.148.069.306.306,0,0,0,.164-.061L3.706,5.678,5.657,7.151a.3.3,0,0,0,.165.064.226.226,0,0,0,.146-.066.279.279,0,0,0,.087-.31L5.272,4.5,7.227,3.029l.047-.043A.29.29,0,0,0,7.358,2.8.291.291,0,0,0,7.076,2.523Z" transform="translate(190.101 7.096) rotate(10)" opacity="0.49" fill="url(#linear-gradient-2)"/>
    <path id="Icon_ionic-ios-star-7" data-name="Icon ionic-ios-star" d="M7.076,2.523,4.66,2.5,3.905.186A.266.266,0,0,0,3.654,0a.254.254,0,0,0-.248.181l-.713,2.3L.26,2.457h0A.265.265,0,0,0,0,2.732a.215.215,0,0,0,.005.047.275.275,0,0,0,.112.2l2,1.493L1.376,6.793a.29.29,0,0,0,.093.312.253.253,0,0,0,.148.069.306.306,0,0,0,.164-.061L3.706,5.678,5.657,7.151a.3.3,0,0,0,.165.064.226.226,0,0,0,.146-.066.279.279,0,0,0,.087-.31L5.272,4.5,7.227,3.029l.047-.043A.29.29,0,0,0,7.358,2.8.291.291,0,0,0,7.076,2.523Z" transform="translate(373.319 32.339) rotate(10)" opacity="0.49" fill="url(#linear-gradient-2)"/>
  </g>
</svg>
