<?xml version="1.0" encoding="UTF-8"?><svg id="Layer_1" xmlns="http://www.w3.org/2000/svg" viewBox="0 0 24 24"><path d="m12.05,0C5.45,0,0,5.36,0,11.95s5.45,12.05,12.05,12.05,11.95-5.45,11.95-12.05S18.64,0,12.05,0Z" style="fill:#fedb41;"/><path d="m23.99,11.95c0,6.6-5.36,12.05-11.95,12.05V0c6.6,0,11.95,5.36,11.95,11.95Z" style="fill:#fc3;"/><path d="m12.05,2.81C7.01,2.81,2.81,6.92,2.81,11.95s4.2,9.23,9.23,9.23,9.14-4.2,9.14-9.23S17.08,2.81,12.05,2.81Z" style="fill:#fea832;"/><path d="m21.17,11.95c0,5.03-4.11,9.23-9.14,9.23V2.81c5.03,0,9.14,4.11,9.14,9.14Z" style="fill:#fe9923;"/><path d="m13.44,11.26h-.7v-2.81h.7c.39,0,.7.31.7.7,0,.93,1.41.93,1.41,0,0-1.17-.94-2.11-2.11-2.11h-.7v-.7c0-.46-.35-.7-.7-.7s-.7.24-.7.7v.7h-.8c-1.16,0-2.11.94-2.11,2.11v1.41c0,1.16.94,2.11,2.11,2.11h.8v2.91h-.8c-.39,0-.7-.31-.7-.7,0-.93-1.41-.93-1.41,0,0,1.17.94,2.11,2.11,2.11h.8v.7c0,.46.35.7.7.7s.7-.24.7-.7v-.7h.7c1.16,0,2.11-.94,2.11-2.11v-1.5c0-1.16-.94-2.11-2.11-2.11Zm-2.11,0h-.8c-.39,0-.7-.31-.7-.7v-1.41c0-.39.31-.7.7-.7h.8v2.81Zm2.11,4.31h-.7v-2.91h.7c.39,0,.7.31.7.7v1.5c0,.39-.31.7-.7.7Z" style="fill:#fedb41;"/><path d="m13.44,11.26h-.7v-2.81h.7c.39,0,.7.31.7.7,0,.93,1.41.93,1.41,0,0-1.17-.94-2.11-2.11-2.11h-.7v-.7c0-.46-.35-.7-.7-.7v12.75c.35,0,.7-.24.7-.7v-.7h.7c1.16,0,2.11-.94,2.11-2.11v-1.5c0-1.16-.94-2.11-2.11-2.11Zm0,4.31h-.7v-2.91h.7c.39,0,.7.31.7.7v1.5c0,.39-.31.7-.7.7Z" style="fill:#fc3;"/></svg>