<?xml version="1.0" encoding="UTF-8"?><svg id="Layer_1" xmlns="http://www.w3.org/2000/svg" viewBox="0 0 24 24"><circle cx="12" cy="12" r="12" style="fill:#eb818b;"/><path d="m17.15,7.86c-.07-.89-.82-1.6-1.73-1.6H7.32c-.96,0-1.73.78-1.73,1.73v8.01c0,.96.78,1.73,1.73,1.73h9.37c.96,0,1.73-.78,1.73-1.73v-6.48c0-.79-.54-1.46-1.26-1.67h0Zm-10.77.13c0-.51.41-.92.92-.92h8.15c.44,0,.81.31.91.73H7.31c-.34,0-.66.1-.93.27v-.07Zm10.3,8.93H7.33c-.51,0-.92-.41-.92-.92v-6.47c0-.51.41-.92.92-.92h9.36c.51,0,.92.41.92.92v1.41s-2.56,0-2.56,0c-1,0-1.84.79-1.88,1.79-.04,1.05.81,1.92,1.85,1.92h2.58v1.36c0,.51-.41.92-.92.92Zm.92-3.08h-2.55c-.56,0-1.05-.46-1.06-1.02s.46-1.06,1.04-1.06h2.57v2.08Z" style="fill:#fff;"/><circle cx="15.18" cy="12.82" r=".42" style="fill:#fff;"/></svg>