<svg xmlns="http://www.w3.org/2000/svg" width="40" height="40" viewBox="0 0 40 40">
  <path id="userID_login" data-name="userID login" d="M-425,52a19.869,19.869,0,0,1-14.142-5.858A19.869,19.869,0,0,1-445,32a19.87,19.87,0,0,1,5.858-14.142A19.868,19.868,0,0,1-425,12a19.868,19.868,0,0,1,14.142,5.858A19.87,19.87,0,0,1-405,32a19.869,19.869,0,0,1-5.858,14.142A19.869,19.869,0,0,1-425,52Zm0-17.689a17.163,17.163,0,0,0-5.779,1.158c-1.581.633-3.465,1.748-3.465,3.463v2.311h18.49V38.933c0-1.715-1.885-2.83-3.465-3.463A17.163,17.163,0,0,0-425,34.312Zm0-11.556a4.628,4.628,0,0,0-4.622,4.622A4.628,4.628,0,0,0-425,32a4.628,4.628,0,0,0,4.622-4.622A4.628,4.628,0,0,0-425,22.756Z" transform="translate(445 -12)" fill="#fff"/>
</svg>
