<svg xmlns="http://www.w3.org/2000/svg" width="40" height="40" viewBox="0 0 40 40">
  <path id="facebook" d="M-443,40a19.869,19.869,0,0,1-14.142-5.858A19.869,19.869,0,0,1-463,20a19.87,19.87,0,0,1,5.858-14.142A19.868,19.868,0,0,1-443,0a19.87,19.87,0,0,1,14.142,5.858A19.87,19.87,0,0,1-423,20a19.868,19.868,0,0,1-5.858,14.142A19.87,19.87,0,0,1-443,40Zm-5.225-22.627h0V20.95h3.089v9.178h3.694V20.95h3.08l.462-3.577h-3.541V15.089c0-1.045.3-1.741,1.773-1.741h1.893v-3.2a25.357,25.357,0,0,0-2.759-.14c-2.838,0-4.6,1.812-4.6,4.728v2.639h-3.089Z" transform="translate(463)" fill="#fff"/>
</svg>
