<svg xmlns="http://www.w3.org/2000/svg" width="79" height="25" viewBox="0 0 79 25">
  <g id="Group_1834" data-name="Group 1834" transform="translate(-201 -290)">
    <rect id="Rectangle_875" data-name="Rectangle 875" width="79" height="25" rx="12.5" transform="translate(201 290)" fill="#0383fa"/>
    <text id="HINDI" transform="translate(237.5 307.444)" fill="#fff" font-size="12" font-family="SFProDisplay-Medium, SF Pro Display" font-weight="500"><tspan x="0" y="0">HINDI</tspan></text>
    <path id="Icon_material-language" data-name="Icon material-language" d="M12.125,3a9.134,9.134,0,1,0,9.143,9.134A9.129,9.129,0,0,0,12.125,3Zm6.33,5.48H15.76A14.293,14.293,0,0,0,14.5,5.229,7.334,7.334,0,0,1,18.454,8.48ZM12.134,4.863A12.866,12.866,0,0,1,13.878,8.48H10.389A12.866,12.866,0,0,1,12.134,4.863Zm-7.069,9.1a7.145,7.145,0,0,1,0-3.653H8.151a15.085,15.085,0,0,0-.128,1.827,15.085,15.085,0,0,0,.128,1.827Zm.749,1.827H8.508a14.293,14.293,0,0,0,1.26,3.252A7.3,7.3,0,0,1,5.813,15.787ZM8.508,8.48H5.813A7.3,7.3,0,0,1,9.768,5.229,14.293,14.293,0,0,0,8.508,8.48ZM12.134,19.4a12.866,12.866,0,0,1-1.745-3.617h3.489A12.866,12.866,0,0,1,12.134,19.4Zm2.137-5.444H10a13.438,13.438,0,0,1-.146-1.827A13.322,13.322,0,0,1,10,10.307h4.275a13.322,13.322,0,0,1,.146,1.827A13.438,13.438,0,0,1,14.271,13.96Zm.228,5.078a14.293,14.293,0,0,0,1.26-3.252h2.694A7.334,7.334,0,0,1,14.5,19.039Zm1.617-5.078a15.084,15.084,0,0,0,.128-1.827,15.085,15.085,0,0,0-.128-1.827H19.2a7.145,7.145,0,0,1,0,3.653Z" transform="translate(204.866 290.311)" fill="#fff"/>
  </g>
</svg>
