<svg id="gift" xmlns="http://www.w3.org/2000/svg" width="33" height="32" viewBox="0 0 33 32">
  <path id="Path_162" data-name="Path 162" d="M1.41,13.5V25.367a2.763,2.763,0,0,0,2.9,2.605H27.624a2.772,2.772,0,0,0,2.9-2.605V13.5H1.41Z" transform="translate(0.533 4.028)" fill="#fff"/>
  <path id="Path_163" data-name="Path 163" d="M1.608,15.162H31.392A2.9,2.9,0,0,0,33,12.6V10.654a2.9,2.9,0,0,0-2.9-2.908H26.169a4.956,4.956,0,0,0,.495-5.086A4.79,4.79,0,0,0,22.224,0a4.3,4.3,0,0,0-3.656,1.819,18.562,18.562,0,0,0-2.075,4.314,18.562,18.562,0,0,0-2.075-4.314A4.3,4.3,0,0,0,10.762,0,4.745,4.745,0,0,0,6.336,2.674,4.956,4.956,0,0,0,6.831,7.76H2.9A2.9,2.9,0,0,0,0,10.668v1.943a2.875,2.875,0,0,0,1.608,2.564Z" transform="translate(0 0)" fill="#fff"/>
  <rect id="Rectangle_348" data-name="Rectangle 348" width="32.432" height="31.446" transform="translate(0.281 0.277)" fill="#fff" opacity="0"/>
</svg>
