<svg xmlns="http://www.w3.org/2000/svg" width="20" height="20" viewBox="0 0 20 20">
  <g id="apple2" transform="translate(-175 -487)">
    <g id="apple" transform="translate(174.896 487)">
      <g id="Group_3" data-name="Group 3" transform="translate(2.104)">
        <g id="Group_2" data-name="Group 2">
          <path id="Path_1" data-name="Path 1" d="M15.48,0h.151a4.558,4.558,0,0,1-1.148,3.435,3.558,3.558,0,0,1-3.132,1.47A4.422,4.422,0,0,1,12.52,1.577,5.047,5.047,0,0,1,15.48,0Z" transform="translate(-3.401)"/>
          <path id="Path_2" data-name="Path 2" d="M18.409,15.148v.039a11.317,11.317,0,0,1-1.665,3.144c-.635.856-1.413,2.008-2.8,2.008-1.2,0-2-.756-3.228-.777-1.3-.021-2.017.632-3.207.8H7.1a3.626,3.626,0,0,1-2.093-1.413,12.24,12.24,0,0,1-2.9-7.12v-.877A5.713,5.713,0,0,1,4.663,6.237a4.393,4.393,0,0,1,2.9-.658,7.417,7.417,0,0,1,1.422.4,3.987,3.987,0,0,0,1.421.417,3.464,3.464,0,0,0,1-.3,6.245,6.245,0,0,1,3.207-.557,4.464,4.464,0,0,1,3.27,1.91,4.09,4.09,0,0,0-2.131,4.078A4.219,4.219,0,0,0,18.409,15.148Z" transform="translate(-2.104 -0.358)"/>
        </g>
      </g>
    </g>
    <rect id="Rectangle_7" data-name="Rectangle 7" width="20" height="20" transform="translate(175 487)" fill="#fff" opacity="0"/>
  </g>
</svg>
