<svg xmlns="http://www.w3.org/2000/svg" width="40" height="40" viewBox="0 0 40 40">
  <path id="userID_login" data-name="userID login" d="M-425,52a19.869,19.869,0,0,1-14.142-5.858A19.869,19.869,0,0,1-445,32a19.87,19.87,0,0,1,5.858-14.142A19.868,19.868,0,0,1-425,12a19.868,19.868,0,0,1,14.142,5.858A19.87,19.87,0,0,1-405,32a19.869,19.869,0,0,1-5.858,14.142A19.869,19.869,0,0,1-425,52Zm.262-18.185a20.9,20.9,0,0,0-7.04,1.411C-433.7,36-436,37.357-436,39.446v2.816h22.523V39.446c0-2.09-2.3-3.448-4.221-4.219A20.9,20.9,0,0,0-424.738,33.816Zm0-14.078a5.638,5.638,0,0,0-5.631,5.631A5.637,5.637,0,0,0-424.738,31a5.637,5.637,0,0,0,5.631-5.63A5.638,5.638,0,0,0-424.738,19.738Z" transform="translate(445 -12)" fill="#fff"/>
</svg>
