<svg xmlns="http://www.w3.org/2000/svg" width="20" height="20" viewBox="0 0 20 20">
  <g id="Group_1827" data-name="Group 1827" transform="translate(-345 -551)">
    <rect id="Rectangle_814" data-name="Rectangle 814" width="20" height="20" transform="translate(345 551)" fill="#4a0e0e" opacity="0"/>
    <g id="Group_1826" data-name="Group 1826" transform="translate(344.436 550.75)">
      <g id="Group_1825" data-name="Group 1825" transform="translate(2.564 1.25)">
        <path id="Path_198" data-name="Path 198" d="M9.316,10.253a.628.628,0,0,1,.688.562L10.422,15a.628.628,0,1,1-1.25.126l-.419-4.189a.628.628,0,0,1,.562-.688Zm4.315,0a.628.628,0,0,1,.562.687l-.419,4.189A.628.628,0,1,1,12.524,15l.419-4.189a.628.628,0,0,1,.687-.562Z" transform="translate(-3.567 -2.709)" fill="#999" fill-rule="evenodd"/>
        <g id="Group_1824" data-name="Group 1824">
          <path id="Path_199" data-name="Path 199" d="M8.9,1.25h2.833a3.186,3.186,0,0,1,.488.023,1.885,1.885,0,0,1,1.375.991,3.14,3.14,0,0,1,.177.456L13.865,3l.024.071a1.047,1.047,0,0,0,1.033.691h2.514a.628.628,0,1,1,0,1.257H3.192a.628.628,0,1,1,0-1.257H5.781A1.047,1.047,0,0,0,6.764,3l.094-.281a3.14,3.14,0,0,1,.177-.456,1.885,1.885,0,0,1,1.374-.991A3.2,3.2,0,0,1,8.9,1.25ZM7.808,3.764A2.31,2.31,0,0,0,7.955,3.4l.084-.251a2.618,2.618,0,0,1,.111-.308.628.628,0,0,1,.458-.331,2.691,2.691,0,0,1,.329-.008h2.756a2.377,2.377,0,0,1,.328.008.628.628,0,0,1,.458.33,2.894,2.894,0,0,1,.111.309l.084.251.032.095a2.378,2.378,0,0,0,.115.263ZM4.7,6.7a.628.628,0,0,1,.669.585l.385,5.781A21.849,21.849,0,0,0,6,15.569a1.89,1.89,0,0,0,.5,1.092,1.883,1.883,0,0,0,1.123.429,21.769,21.769,0,0,0,2.517.08h.648a21.777,21.777,0,0,0,2.517-.08,1.883,1.883,0,0,0,1.123-.429,1.89,1.89,0,0,0,.5-1.092,21.849,21.849,0,0,0,.246-2.505l.385-5.781a.629.629,0,1,1,1.254.084l-.389,5.825a22.145,22.145,0,0,1-.265,2.624,3.11,3.11,0,0,1-.877,1.763,3.1,3.1,0,0,1-1.818.757,22.1,22.1,0,0,1-2.636.09H10.1a22.3,22.3,0,0,1-2.636-.09,3.108,3.108,0,0,1-1.818-.758,3.113,3.113,0,0,1-.877-1.763,22.325,22.325,0,0,1-.265-2.624L4.117,7.366A.628.628,0,0,1,4.7,6.7Z" transform="translate(-2.564 -1.25)" fill="#222" fill-rule="evenodd"/>
        </g>
      </g>
    </g>
  </g>
</svg>
