<svg xmlns="http://www.w3.org/2000/svg" width="35" height="35" viewBox="0 0 35 35">
  <g id="retake" transform="translate(-10 -766)">
    <g id="Path_299" data-name="Path 299" transform="translate(10 766)" fill="none" opacity="0.87">
      <path d="M17.5,0A17.5,17.5,0,1,1,0,17.5,17.5,17.5,0,0,1,17.5,0Z" stroke="none"/>
      <path d="M 17.5 2 C 13.35980033874512 2 9.467409133911133 3.612279891967773 6.539850234985352 6.539850234985352 C 3.612279891967773 9.467409133911133 2 13.35980033874512 2 17.5 C 2 21.64019966125488 3.612279891967773 25.53258895874023 6.539850234985352 28.46015930175781 C 9.467409133911133 31.38772010803223 13.35980033874512 33 17.5 33 C 21.64019966125488 33 25.53260040283203 31.38772010803223 28.46015930175781 28.46015930175781 C 31.38772010803223 25.53260040283203 33 21.64019966125488 33 17.5 C 33 13.35980033874512 31.38772010803223 9.467409133911133 28.46015930175781 6.539850234985352 C 25.53258895874023 3.612279891967773 21.64019966125488 2 17.5 2 M 17.5 0 C 27.16498947143555 0 35 7.835020065307617 35 17.5 C 35 27.16498947143555 27.16498947143555 35 17.5 35 C 7.835020065307617 35 0 27.16498947143555 0 17.5 C 0 7.835020065307617 7.835020065307617 0 17.5 0 Z" stroke="none" fill="#fff"/>
    </g>
    <path id="Icon_material-replay" data-name="Icon material-replay" d="M14.095,5.547V1.5L9.036,6.559l5.059,5.059V7.571a6.071,6.071,0,1,1-6.071,6.071H6a8.095,8.095,0,1,0,8.095-8.095Z" transform="translate(13 771.5)" fill="#fff"/>
  </g>
</svg>
