<svg xmlns="http://www.w3.org/2000/svg" width="15.27" height="15.516" viewBox="0 0 15.27 15.516">
  <path id="Icon_awesome-power-off" data-name="Icon awesome-power-off" d="M12.63,1.665a7.634,7.634,0,1,1-8.872,0,.741.741,0,0,1,1.077.237l.486.865a.739.739,0,0,1-.2.954,5.172,5.172,0,1,0,6.154,0,.734.734,0,0,1-.2-.951l.486-.865a.738.738,0,0,1,1.071-.24Zm-3.2,6.462V.739A.737.737,0,0,0,8.69,0H7.7a.737.737,0,0,0-.739.739V8.127a.737.737,0,0,0,.739.739H8.69A.737.737,0,0,0,9.429,8.127Z" transform="translate(-0.563)" fill="#2d2d2d"/>
</svg>
