<svg id="Group_11" data-name="Group 11" xmlns="http://www.w3.org/2000/svg" xmlns:xlink="http://www.w3.org/1999/xlink" width="18.784" height="12.142" viewBox="0 0 18.784 12.142">
  <defs>
    <clipPath id="clip-path">
      <rect id="Rectangle_11" data-name="Rectangle 11" width="18.784" height="12.142" fill="none"/>
    </clipPath>
  </defs>
  <g id="Group_10" data-name="Group 10" clip-path="url(#clip-path)">
    <path id="Path_7" data-name="Path 7" d="M180.068,86.617a2.892,2.892,0,1,0,2.892,2.892,2.9,2.9,0,0,0-2.892-2.892" transform="translate(-170.676 -83.439)" fill="#c1c1c1"/>
    <path id="Path_8" data-name="Path 8" d="M18.5,5.269A19.182,19.182,0,0,0,15.2,2.153C11.256-.72,7.52-.714,3.581,2.153A18.821,18.821,0,0,0,.288,5.269a1.258,1.258,0,0,0,0,1.6c2.222,2.685,5.588,5.272,9.1,5.272s6.882-2.587,9.1-5.272a1.258,1.258,0,0,0,0-1.6m-9.1,4.849A4.049,4.049,0,1,1,13.44,6.07a4.053,4.053,0,0,1-4.049,4.049" transform="translate(0 0)" fill="#c1c1c1"/>
  </g>
</svg>
