<svg xmlns="http://www.w3.org/2000/svg" xmlns:xlink="http://www.w3.org/1999/xlink" width="15.083" height="7.894" viewBox="0 0 15.083 7.894">
  <defs>
    <clipPath id="clip-path">
      <rect id="Rectangle_10" data-name="Rectangle 10" width="15.083" height="7.894" fill="none"/>
    </clipPath>
  </defs>
  <g id="Group_9" data-name="Group 9" opacity="0.5">
    <g id="Group_8" data-name="Group 8" clip-path="url(#clip-path)">
      <path id="Path_6" data-name="Path 6" d="M.77.073A.718.718,0,0,1,1.73.4,7.655,7.655,0,0,0,2.792,2.025,6.747,6.747,0,0,0,4.773,3.616a.726.726,0,0,1,.122.062,5.939,5.939,0,0,0,2.651.628A5.947,5.947,0,0,0,10.2,3.68a.746.746,0,0,1,.122-.063,6.749,6.749,0,0,0,2.038-1.658A7.653,7.653,0,0,0,13.363.4a.718.718,0,0,1,1.29.63A9.158,9.158,0,0,1,13.833,2.4L14.864,3.43a.727.727,0,0,1,.079.946.718.718,0,0,1-1.084.08l-.966-.966a8.189,8.189,0,0,1-1.362,1.084l.605,1.206a.718.718,0,0,1-1.254.7c-.011-.018-.02-.035-.029-.054l-.6-1.2a7.314,7.314,0,0,1-1.989.482V7.161a.723.723,0,1,1-1.445.009V5.7a7.322,7.322,0,0,1-1.986-.48l-.6,1.195a.717.717,0,0,1-1.282-.642l.6-1.2A8.179,8.179,0,0,1,2.2,3.489l-.964.964a.717.717,0,0,1-1.031-1L.219,3.44,1.259,2.4A9.143,9.143,0,0,1,.44,1.035.717.717,0,0,1,.77.077Z" transform="translate(0 0)" fill="#c1c1c1" fill-rule="evenodd"/>
    </g>
  </g>
</svg>
