<?xml version="1.0" encoding="UTF-8"?><svg id="Layer_1" xmlns="http://www.w3.org/2000/svg" xmlns:xlink="http://www.w3.org/1999/xlink" viewBox="0 0 24 24"><defs><linearGradient id="linear-gradient" x1="4" y1="1.2" x2="20.22" y2="23.1" gradientUnits="userSpaceOnUse"><stop offset="0" stop-color="#f9d3c0"/><stop offset=".19" stop-color="#f8c9b3"/><stop offset=".54" stop-color="#f6ae91"/><stop offset="1" stop-color="#f3865c"/></linearGradient></defs><g id="Group_947"><path id="Path_47" d="m11.99,22.62l6.01-12.12,6-2.69-12.01,14.81h0Z" style="fill:#e28b22;"/><path id="Path_48" d="m11.99,22.62L0,7.79l6,2.7,5.99,12.13h0Z" style="fill:#ffb93e;"/><path id="Path_49" d="m11.99,22.62l-5.99-12.13h12s-6.01,12.13-6.01,12.13Z" style="fill:#ffcc35;"/><path id="Path_50" d="m18,10.48l-1.54-4.95,4.46-2.07,3.09,4.33-6,2.68Z" style="fill:#ffb92f;"/><path id="Path_51" d="m0,7.78L3.09,3.45l4.45,2.08-1.55,4.94L0,7.78Z" style="fill:#ffdd48;"/><path id="Path_52" d="m6,10.47l1.55-4.94h8.91s1.54,4.95,1.54,4.95H6Z" style="fill:#fefba1;"/><path id="Path_53" d="m16.46,5.54H7.55S3.09,3.45,3.09,3.45L7.55,1.38h8.91s4.45,2.09,4.45,2.09l-4.46,2.07Z" style="fill:#ffe25f;"/></g><rect width="24" height="24" style="fill:url(#linear-gradient); opacity:0;"/></svg>