<svg id="like" xmlns="http://www.w3.org/2000/svg" width="32.384" height="32" viewBox="0 0 32.384 32">
  <rect id="Rectangle_349" data-name="Rectangle 349" width="32" height="32" transform="translate(0.199)" fill="#fff" opacity="0"/>
  <g id="Layer_2" transform="translate(0 0.527)">
    <path id="Path_164" data-name="Path 164" d="M31.413,13.905a4.738,4.738,0,0,0-3.834-1.89H22.841L23.7,7.709a6.07,6.07,0,0,0-1.3-5.17C21.261,1.189,19.129.1,17.441.716a2.924,2.924,0,0,0-1.8,3.037c0,4.32-5.062,7.816-7.479,9.234A4.262,4.262,0,0,0,0,14.7V27.216a4.247,4.247,0,0,0,8.086,1.836l2.74,1.822a3.566,3.566,0,0,0,1.984.594H23.084a7.194,7.194,0,0,0,6.925-5.292l2.2-8.086a4.752,4.752,0,0,0-.823-4.185h0Z" transform="translate(0 -0.538)" fill="#fff"/>
  </g>
</svg>
