<?xml version="1.0" encoding="UTF-8"?><svg id="Layer_1" xmlns="http://www.w3.org/2000/svg" viewBox="0 0 100 100"><path d="m66.02,0h-32.04c-3,0-5.88,1.19-8.01,3.32L3.32,25.97c-2.12,2.12-3.32,5-3.32,8.01v32.04c0,3,1.19,5.88,3.32,8.01l22.66,22.66c2.12,2.12,5,3.32,8.01,3.32h32.04c3,0,5.88-1.19,8.01-3.32l22.66-22.66c2.12-2.12,3.32-5,3.32-8.01v-32.04c0-3-1.19-5.88-3.32-8.01L74.03,3.32c-2.12-2.12-5-3.32-8.01-3.32Zm-10.23,21.66l-1.54,36.39h-9.91l-1.37-36.39h12.82Zm-1.04,58.14c-1.47,1.48-3.26,2.23-5.37,2.23s-3.9-.74-5.37-2.23-2.24-3.44-2.21-5.48.76-3.8,2.21-5.25c1.47-1.47,3.26-2.21,5.37-2.21s3.9.74,5.37,2.21c1.44,1.44,2.18,3.19,2.21,5.25s-.77,4.03-2.21,5.47Z" style="fill:#fff;"/></svg>